<?xml version="1.0" encoding="utf-8"?>
<!-- Generator: Adobe Illustrator 16.0.0, SVG Export Plug-In . SVG Version: 6.00 Build 0)  -->
<!DOCTYPE svg PUBLIC "-//W3C//DTD SVG 1.1//EN" "http://www.w3.org/Graphics/SVG/1.1/DTD/svg11.dtd">
<svg version="1.1" id="Layer_1" xmlns="http://www.w3.org/2000/svg" xmlns:xlink="http://www.w3.org/1999/xlink" x="0px" y="0px"
	 width="100%" height="100%" viewBox="0 0 482.288 269.767" enable-background="new 0 0 482.288 269.767"
	 xml:space="preserve">
<g>
	<g>
		<g>
			<polygon fill="#ffffff" points="144.271,50.108 86.79,83.515 0,33.407 57.481,0 			"/>
		</g>
		<g>
			<polygon fill="#ffffff" points="60.665,269.767 230.814,170.888 172.951,137.484 60.665,202.739 			"/>
			<polygon fill="#ffffff" points="57.86,269.767 57.86,70.314 0,36.908 0,236.363 			"/>
		</g>
	</g>
	<g>
		<path fill="#ffffff" d="M203.365,50.015h8.651v56.274h14.923v8.198h-23.574V50.015z"/>
		<path fill="#ffffff" d="M232.149,63.557c0-8.754,5.917-14.187,14.566-14.187c8.743,0,14.659,5.433,14.659,14.187v37.391
			c0,8.751-5.916,14.181-14.659,14.181c-8.649,0-14.566-5.43-14.566-14.181V63.557z M252.724,64.381
			c0-4.052-2.209-6.811-6.008-6.811c-3.794,0-5.909,2.759-5.909,6.811v35.739c0,4.052,2.115,6.814,5.909,6.814
			c3.799,0,6.008-2.762,6.008-6.814V64.381z"/>
		<path fill="#ffffff" d="M270.911,63.557c0-8.754,5.919-14.187,14.574-14.187c9.532,0,14.651,5.804,14.651,13.54v9.393h-8.649
			v-8.289c0-3.13-1.499-6.443-6.002-6.443c-3.982,0-5.92,2.759-5.92,6.811v35.739c0,4.052,1.938,6.814,5.92,6.814
			c4.503,0,6.002-3.036,6.002-5.898V86.484h-6.097V78.66h14.746v22.93c0,7.738-5.119,13.539-14.651,13.539
			c-8.655,0-14.574-5.43-14.574-14.181V63.557z"/>
		<path fill="#ffffff" d="M310.471,50.015h8.651v64.472h-8.651V50.015z"/>
		<path fill="#ffffff" d="M328.655,92.938h8.657v7.733c0,3.13,1.588,6.263,5.651,6.263c3.796,0,5.825-2.483,5.825-6.352V89.805
			c0-2.397-1.145-4.055-3.531-4.146l-7.327-0.371c-6.008-0.274-9.275-3.864-9.275-9.393V63.557c0-8.754,5.831-14.187,14.48-14.187
			c9.535,0,14.308,5.804,14.308,13.54v7.738h-8.654v-6.814c0-2.95-1.68-6.263-5.739-6.263c-3.706,0-5.737,2.488-5.737,6.352V74.24
			c0,2.394,1.147,4.052,3.442,4.146l7.416,0.368c6.005,0.276,9.272,3.77,9.272,9.299v12.895c0,8.751-5.828,14.181-14.568,14.181
			c-9.447,0-14.22-5.801-14.22-13.539V92.938z"/>
		<path fill="#ffffff" d="M372.979,58.212h-11.032v-8.198h30.813v8.198h-11.037v56.274h-8.744V58.212z"/>
		<path fill="#ffffff" d="M399.203,50.015h8.657v64.472h-8.657V50.015z"/>
		<path fill="#ffffff" d="M418.366,63.557c0-8.754,5.745-14.187,14.392-14.187c9.535,0,14.219,5.804,14.219,13.54v10.406h-8.654
			v-9.302c0-3.13-1.502-6.443-5.653-6.443c-3.797,0-5.647,2.759-5.647,6.811v35.739c0,4.052,1.851,6.814,5.647,6.814
			c4.151,0,5.653-3.313,5.653-6.446V90.265h8.654v11.325c0,7.738-4.684,13.539-14.219,13.539c-8.646,0-14.392-5.43-14.392-14.181
			V63.557z"/>
		<path fill="#ffffff" d="M453.42,92.938h8.652v7.733c0,3.13,1.585,6.263,5.65,6.263c3.797,0,5.828-2.483,5.828-6.352V89.805
			c0-2.397-1.15-4.055-3.528-4.146l-7.333-0.371c-6.005-0.274-9.27-3.864-9.27-9.393V63.557c0-8.754,5.828-14.187,14.477-14.187
			c9.542,0,14.311,5.804,14.311,13.54v7.738h-8.656v-6.814c0-2.95-1.683-6.263-5.74-6.263c-3.71,0-5.738,2.488-5.738,6.352V74.24
			c0,2.394,1.146,4.052,3.441,4.146l7.419,0.368c6.002,0.276,9.274,3.77,9.274,9.299v12.895c0,8.751-5.827,14.181-14.573,14.181
			c-9.444,0-14.214-5.801-14.214-13.539V92.938z"/>
	</g>
	<g>
		<path fill="#ffffff" d="M256.432,150.868c0-8.762,5.393-14.206,13.515-14.206c8.964,0,13.359,5.814,13.359,13.561v10.428h-8.13
			v-9.318c0-3.138-1.408-6.459-5.308-6.459c-3.567,0-5.309,2.77-5.309,6.825v35.803c0,4.057,1.741,6.825,5.309,6.825
			c3.899,0,5.308-3.324,5.308-6.454v-10.243h8.13v11.347c0,7.751-4.396,13.563-13.359,13.563c-8.122,0-13.515-5.441-13.515-14.211
			V150.868z"/>
		<path fill="#ffffff" d="M291.184,137.307h8.131v56.374h14.015v8.214h-22.146V137.307z"/>
		<path fill="#ffffff" d="M318.806,137.307h8.128v50.471c0,3.692,1.824,6.548,5.893,6.548c4.062,0,5.884-2.856,5.884-6.548v-50.471
			h8.214v51.304c0,8.3-5.559,13.929-14.098,13.929c-8.462,0-14.021-5.629-14.021-13.929V137.307z"/>
		<path fill="#ffffff" d="M355.466,180.303h8.131v7.751c0,3.136,1.491,6.271,5.307,6.271c3.565,0,5.479-2.491,5.479-6.365v-10.793
			c0-2.399-1.08-4.06-3.321-4.151l-6.884-0.371c-5.643-0.274-8.711-3.875-8.711-9.413v-12.365c0-8.762,5.476-14.206,13.604-14.206
			c8.961,0,13.438,5.814,13.438,13.561v7.751h-8.125v-6.825c0-2.956-1.577-6.276-5.391-6.276c-3.49,0-5.395,2.491-5.395,6.368
			v10.334c0,2.396,1.074,4.057,3.237,4.154l6.962,0.366c5.64,0.276,8.711,3.786,8.711,9.318v12.916
			c0,8.77-5.474,14.211-13.688,14.211c-8.872,0-13.354-5.812-13.354-13.563V180.303z"/>
		<path fill="#ffffff" d="M397.104,145.521h-10.368v-8.214h28.948v8.214h-10.363v56.374h-8.217V145.521z"/>
		<path fill="#ffffff" d="M421.741,137.307h22.974v8.214h-14.846v19.561h14.265v7.935h-14.265v20.665h14.929v8.214h-23.057V137.307z
			"/>
		<path fill="#ffffff" d="M452.598,137.307h13.768c9.869,0,13.602,4.522,13.602,13.381v6.457c0,6.459-2.319,10.885-7.051,12.551
			c4.396,0.921,7.134,3.872,7.134,9.686v16.514c0,2.125,0.497,4.796,2.238,5.726v0.274h-8.458c-1.741-0.924-1.908-4.157-1.908-6.459
			v-14.576c0-4.616-1.824-7.016-7.628-7.016c-0.336,0-3.151,0.094-3.565,0.186v27.866h-8.131V137.307z M472.003,151.883
			c0-4.151-1.905-6.548-6.968-6.548h-4.307v20.574h4.307c5.062,0,6.968-3.136,6.968-7.29V151.883z"/>
	</g>
</g>
</svg>
